<?xml version="1.0" encoding="iso-8859-1"?>
<!-- Generator: Adobe Illustrator 19.0.0, SVG Export Plug-In . SVG Version: 6.00 Build 0)  -->
<svg xmlns="http://www.w3.org/2000/svg" xmlns:xlink="http://www.w3.org/1999/xlink" version="1.1" id="Capa_1" x="0px" y="0px" viewBox="0 0 512 512" style="enable-background:new 0 0 512 512;" xml:space="preserve" width="512px" height="512px">
<g>
	<g>
		<path d="M472,48h-80v-8c0-22.056-17.944-40-40-40c-13.128,0-24.704,6.448-32,16.248C312.704,6.448,301.128,0,288,0    s-24.704,6.448-32,16.248C248.704,6.448,237.128,0,224,0s-24.704,6.448-32,16.248C184.704,6.448,173.128,0,160,0    c-22.056,0-40,17.944-40,40v8H40C17.944,48,0,65.944,0,88v256c0,22.056,17.944,40,40,40h96v128h16V384h160v-0.408    c2.632,0.264,5.296,0.408,8,0.408h16v-16h-16c-32.576,0-59.552-24.48-63.504-56H360c13.232,0,24,10.768,24,24v176h16V384h72    c22.056,0,40-17.944,40-40V88C512,65.944,494.056,48,472,48z M328,40c0-13.232,10.768-24,24-24s24,10.768,24,24v32    c0,13.232-10.768,24-24,24s-24-10.768-24-24V40z M264,40c0-13.232,10.768-24,24-24s24,10.768,24,24v32c0,13.232-10.768,24-24,24    s-24-10.768-24-24V40z M200,40c0-13.232,10.768-24,24-24s24,10.768,24,24v32c0,13.232-10.768,24-24,24s-24-10.768-24-24V40z     M136,40c0-13.232,10.768-24,24-24s24,10.768,24,24v32c0,13.232-10.768,24-24,24s-24-10.768-24-24V40z M496,344    c0,13.232-10.768,24-24,24h-72v-32c0-22.056-17.944-40-40-40H248c-4.416,0-8,3.576-8,8c0,26.184,12.704,49.4,32.208,64H40    c-13.232,0-24-10.768-24-24V88c0-13.232,10.768-24,24-24h80v8c0,22.056,17.944,40,40,40c13.128,0,24.704-6.448,32-16.248    c7.296,9.8,18.872,16.248,32,16.248s24.704-6.448,32-16.248c7.296,9.8,18.872,16.248,32,16.248s24.704-6.448,32-16.248    c7.296,9.8,18.872,16.248,32,16.248c22.056,0,40-17.944,40-40v-8h80c13.232,0,24,10.768,24,24V344z" fill="#eca217"/>
	</g>
</g>
<g>
	<g>
		<path d="M192,136H48c-4.416,0-8,3.576-8,8v152c0,4.424,3.584,8,8,8h144c4.416,0,8-3.576,8-8V144C200,139.576,196.416,136,192,136z     M64.56,288c2.704-24.648,17.584-45.384,38.528-52.944c2.264,1.424,4.736,2.496,7.336,3.32c0.4,0.128,0.792,0.264,1.2,0.376    c1.248,0.336,2.504,0.6,3.8,0.792c0.224,0.032,0.44,0.04,0.664,0.064c1.296,0.16,2.576,0.392,3.912,0.392s2.616-0.232,3.912-0.392    c0.224-0.024,0.44-0.032,0.664-0.064c1.296-0.192,2.56-0.448,3.8-0.792c0.408-0.112,0.8-0.248,1.2-0.376    c2.6-0.824,5.064-1.896,7.328-3.32c20.952,7.56,35.824,28.296,38.528,52.944H64.56z M104,208v-8c0-8.824,7.176-16,16-16    c8.824,0,16,7.176,16,16v8c0,4.776-2.144,9.016-5.472,11.952c-0.072,0.056-0.168,0.096-0.24,0.16C128.2,221.88,124.72,224,120,224    c-4.72,0-8.2-2.12-10.288-3.888c-0.072-0.064-0.16-0.096-0.24-0.152C106.144,217.016,104,212.776,104,208z M184,259.44    c-7.56-16.32-20.048-29.496-35.656-36.896C150.6,218.16,152,213.264,152,208v-8c0-17.648-14.352-32-32-32s-32,14.352-32,32v8    c0,5.264,1.4,10.16,3.656,14.544C76.048,229.944,63.56,243.128,56,259.44V152h128V259.44z" fill="#eca217"/>
	</g>
</g>
<g>
	<g>
		<rect x="56" y="320" width="72" height="16" fill="#eca217"/>
	</g>
</g>
<g>
	<g>
		<rect x="144" y="320" width="32" height="16" fill="#eca217"/>
	</g>
</g>
<g>
	<g>
		<rect x="232" y="136" width="88" height="16" fill="#eca217"/>
	</g>
</g>
<g>
	<g>
		<rect x="344" y="136" width="88" height="16" fill="#eca217"/>
	</g>
</g>
<g>
	<g>
		<rect x="232" y="176" width="40" height="16" fill="#eca217"/>
	</g>
</g>
<g>
	<g>
		<rect x="296" y="176" width="32" height="16" fill="#eca217"/>
	</g>
</g>
<g>
	<g>
		<rect x="232" y="216" width="40" height="16" fill="#eca217"/>
	</g>
</g>
<g>
	<g>
		<rect x="232" y="256" width="16" height="16" fill="#eca217"/>
	</g>
</g>
<g>
	<g>
		<rect x="264" y="256" width="16" height="16" fill="#eca217"/>
	</g>
</g>
<g>
	<g>
		<rect x="296" y="256" width="16" height="16" fill="#eca217"/>
	</g>
</g>
<g>
	<g>
		<rect x="328" y="256" width="72" height="16" fill="#eca217"/>
	</g>
</g>
<g>
	<g>
		<rect x="416" y="256" width="48" height="16" fill="#eca217"/>
	</g>
</g>
<g>
	<g>
		<path d="M464,176h-56c-4.416,0-8,3.576-8,8v40c0,4.424,3.584,8,8,8h56c4.416,0,8-3.576,8-8v-40C472,179.576,468.416,176,464,176z     M456,216h-40v-24h40V216z" fill="#eca217"/>
	</g>
</g>
<g>
</g>
<g>
</g>
<g>
</g>
<g>
</g>
<g>
</g>
<g>
</g>
<g>
</g>
<g>
</g>
<g>
</g>
<g>
</g>
<g>
</g>
<g>
</g>
<g>
</g>
<g>
</g>
<g>
</g>
</svg>
