<?xml version="1.0" encoding="iso-8859-1"?>
<!-- Generator: Adobe Illustrator 19.0.0, SVG Export Plug-In . SVG Version: 6.00 Build 0)  -->
<svg xmlns="http://www.w3.org/2000/svg" xmlns:xlink="http://www.w3.org/1999/xlink" version="1.1" id="Capa_1" x="0px" y="0px" viewBox="0 0 512.009 512.009" style="enable-background:new 0 0 512.009 512.009;" xml:space="preserve" width="512px" height="512px">
<g>
	<g>
		<path d="M93.867,332.804h-51.2c-4.71,0-8.533,3.823-8.533,8.533v51.2c0,4.71,3.823,8.533,8.533,8.533h51.2    c4.71,0,8.533-3.823,8.533-8.533v-51.2C102.4,336.627,98.577,332.804,93.867,332.804z" fill="#eca217"/>
	</g>
</g>
<g>
	<g>
		<path d="M93.867,110.938h-51.2c-4.71,0-8.533,3.823-8.533,8.533v51.2c0,4.71,3.823,8.533,8.533,8.533h51.2    c4.71,0,8.533-3.823,8.533-8.533v-51.2C102.4,114.761,98.577,110.938,93.867,110.938z" fill="#eca217"/>
	</g>
</g>
<g>
	<g>
		<path d="M93.867,196.271h-51.2c-4.71,0-8.533,3.823-8.533,8.533v102.4c0,4.71,3.823,8.533,8.533,8.533h51.2    c4.71,0,8.533-3.823,8.533-8.533v-102.4C102.4,200.094,98.577,196.271,93.867,196.271z" fill="#eca217"/>
	</g>
</g>
<g>
	<g>
		<path d="M213.333,204.804v17.067h62.404c3.243,0,5.862-2.628,5.862-5.862v-11.204H213.333z" fill="#eca217"/>
	</g>
</g>
<g>
	<g>
		<path d="M332.8,281.604h-34.133c-4.702,0-8.533,3.831-8.533,8.533c0,4.702,3.831,8.533,8.533,8.533H332.8    c4.702,0,8.533-3.831,8.533-8.533C341.333,285.436,337.502,281.604,332.8,281.604z" fill="#eca217"/>
	</g>
</g>
<g>
	<g>
		<path d="M185.062,170.679c-3.234-0.008-5.862,2.62-5.862,5.854v39.484c0,3.226,2.628,5.862,5.862,5.862h11.204v-51.2H185.062z" fill="#eca217"/>
	</g>
</g>
<g>
	<g>
		<path d="M275.738,170.671h-62.404v17.067H281.6v-11.204C281.6,173.308,278.972,170.671,275.738,170.671z" fill="#eca217"/>
	</g>
</g>
<g>
	<g>
		<path d="M221.867,281.604h-34.133c-4.702,0-8.533,3.831-8.533,8.533c0,4.702,3.831,8.533,8.533,8.533h34.133    c4.702,0,8.533-3.831,8.533-8.533C230.4,285.436,226.577,281.604,221.867,281.604z" fill="#eca217"/>
	</g>
</g>
<g>
	<g>
		<path d="M379.529,214.157c-6.289-13.346-4.855-30.054,3.661-42.24c-2.483-0.819-5.077-1.246-7.723-1.246    c-14.114,0-25.6,11.486-25.6,25.6s11.486,25.6,25.6,25.6c2.645,0,5.239-0.427,7.723-1.246c-0.742-1.058-1.314-2.219-1.963-3.337    C380.629,216.256,380.032,215.232,379.529,214.157z" fill="#eca217"/>
	</g>
</g>
<g>
	<g>
		<path d="M418.133,170.671c-6.033,0-11.511,2.185-15.974,5.786c-6.545,5.291-10.249,13.679-9.489,22.093    c0.128,1.331,0.35,2.637,0.683,3.908c2.85,11,13.201,19.413,24.781,19.413c14.114,0,25.6-11.486,25.6-25.6    S432.247,170.671,418.133,170.671z" fill="#eca217"/>
	</g>
</g>
<g>
	<g>
		<path d="M465.587,110.938H307.2V76.804V36.407c0-20.07-16.333-36.403-36.403-36.403H36.403C16.324,0.004,0,16.337,0,36.407v40.397    v358.4v40.397c0,20.07,16.333,36.403,36.403,36.403h234.402c20.07,0,36.403-16.333,36.403-36.403v-40.397v-34.133h158.379    c25.6,0,46.421-20.821,46.421-46.421V157.368C512,131.759,491.187,110.938,465.587,110.938z M375.467,153.604    c7.569,0,14.822,2.074,21.342,5.931c6.298-3.669,13.525-5.931,21.325-5.931c23.526,0,42.667,19.14,42.667,42.667    s-19.14,42.667-42.667,42.667c-7.799,0-15.027-2.261-21.325-5.931c-6.519,3.857-13.773,5.931-21.342,5.931    c-23.526,0-42.667-19.14-42.667-42.667S351.949,153.604,375.467,153.604z M298.684,176.525v39.484    c0,12.638-10.283,22.929-22.929,22.929h-90.684c-12.638,0-22.929-10.283-22.929-22.929v-39.484    c-0.008-12.638,10.274-22.929,22.929-22.929h90.684C288.393,153.596,298.684,163.878,298.684,176.525z M247.467,290.138    c0,14.114-11.477,25.6-25.6,25.6h-34.133c-14.114,0-25.6-11.486-25.6-25.6c0-14.114,11.486-25.6,25.6-25.6h34.133    C235.981,264.538,247.467,276.023,247.467,290.138z M110.933,34.138h85.333c4.71,0,8.533,3.823,8.533,8.533    c0,4.71-3.823,8.533-8.533,8.533h-85.333c-4.71,0-8.533-3.823-8.533-8.533C102.4,37.961,106.223,34.138,110.933,34.138z     M85.333,477.871H51.2c-4.71,0-8.533-3.823-8.533-8.533c0-4.71,3.823-8.533,8.533-8.533h34.133c4.71,0,8.533,3.823,8.533,8.533    C93.867,474.048,90.044,477.871,85.333,477.871z M179.2,477.871H128c-4.71,0-8.533-3.823-8.533-8.533    c0-4.71,3.823-8.533,8.533-8.533h51.2c4.71,0,8.533,3.823,8.533,8.533C187.733,474.048,183.91,477.871,179.2,477.871z     M256,477.871h-34.133c-4.71,0-8.533-3.823-8.533-8.533c0-4.71,3.823-8.533,8.533-8.533H256c4.71,0,8.533,3.823,8.533,8.533    C264.533,474.048,260.71,477.871,256,477.871z M290.133,426.671H17.067V85.338h273.067v25.6H165.888    c-25.6,0-46.421,20.821-46.421,46.421v197.282c0,25.6,20.821,46.421,46.421,46.421h124.245V426.671z M290.133,358.404H170.667    c-4.71,0-8.533-3.823-8.533-8.533c0-4.71,3.823-8.533,8.533-8.533h119.467c4.71,0,8.533,3.823,8.533,8.533    C298.667,354.581,294.844,358.404,290.133,358.404z M298.667,315.738c-14.114,0-25.6-11.486-25.6-25.6    c0-14.114,11.486-25.6,25.6-25.6H332.8c14.123,0,25.6,11.486,25.6,25.6c0,14.114-11.486,25.6-25.6,25.6H298.667z M375.467,358.404    h-51.2c-4.71,0-8.533-3.823-8.533-8.533c0-4.71,3.823-8.533,8.533-8.533h51.2c4.71,0,8.533,3.823,8.533,8.533    C384,354.581,380.177,358.404,375.467,358.404z M460.8,358.404h-51.2c-4.71,0-8.533-3.823-8.533-8.533    c0-4.71,3.823-8.533,8.533-8.533h51.2c4.71,0,8.533,3.823,8.533,8.533C469.333,354.581,465.51,358.404,460.8,358.404z     M443.733,315.738H409.6c-14.114,0-25.6-11.486-25.6-25.6c0-14.114,11.486-25.6,25.6-25.6h34.133c14.114,0,25.6,11.486,25.6,25.6    C469.333,304.252,457.856,315.738,443.733,315.738z" fill="#eca217"/>
	</g>
</g>
<g>
	<g>
		<path d="M443.733,281.604H409.6c-4.702,0-8.533,3.831-8.533,8.533c0,4.702,3.831,8.533,8.533,8.533h34.133    c4.702,0,8.533-3.831,8.533-8.533C452.267,285.436,448.444,281.604,443.733,281.604z" fill="#eca217"/>
	</g>
</g>
<g>
</g>
<g>
</g>
<g>
</g>
<g>
</g>
<g>
</g>
<g>
</g>
<g>
</g>
<g>
</g>
<g>
</g>
<g>
</g>
<g>
</g>
<g>
</g>
<g>
</g>
<g>
</g>
<g>
</g>
</svg>
