<?xml version="1.0" encoding="iso-8859-1"?>
<!-- Generator: Adobe Illustrator 16.0.0, SVG Export Plug-In . SVG Version: 6.00 Build 0)  -->
<!DOCTYPE svg PUBLIC "-//W3C//DTD SVG 1.1//EN" "http://www.w3.org/Graphics/SVG/1.1/DTD/svg11.dtd">
<svg xmlns="http://www.w3.org/2000/svg" xmlns:xlink="http://www.w3.org/1999/xlink" version="1.1" id="Capa_1" x="0px" y="0px" width="512px" height="512px" viewBox="0 0 940.287 940.287" style="enable-background:new 0 0 940.287 940.287;" xml:space="preserve">
<g>
	<g>
		<path d="M415.921,494.496c-3.931-3.227-9.67-2.932-13.267,0.664L250.458,647.357c-2.84,2.84-0.337,7.715,3.609,6.969    c15.287-2.885,41.985-18.76,49.337-12.986c9.564,7.512-7.672,53.611,2.535,59.791c10.375,6.283,43.242-30.375,54.151-25.467    c11.037,4.965,5.41,53.859,16.857,57.416c11.535,3.584,34.627-39.898,46.441-37.742c11.864,2.162,18.11,50.99,30.115,51.713    c12.021,0.723,24.078-47.006,36.099-47.729c12.004-0.723,29.699,45.219,41.562,43.057c11.814-2.154,12.141-51.375,23.676-54.959    c11.449-3.557,39.625,36.816,50.662,31.854c10.908-4.908-0.607-52.758,9.768-59.039c10.207-6.182,47.275,26.225,56.838,18.711    c9.357-7.35-13.295-51.043-4.67-59.668c8.623-8.623,52.318,14.029,59.668,4.672c7.512-9.564-24.895-46.633-18.713-56.838    c6.283-10.375,54.131,1.143,59.039-9.768c4.965-11.035-35.41-39.215-31.852-50.662c3.584-11.533,52.803-11.859,54.959-23.674    c2.162-11.863-43.779-29.558-43.057-41.563c0.723-12.021,48.451-24.078,47.729-36.1c-0.723-12.005-49.549-18.251-51.711-30.114    c-2.154-11.814,41.326-34.906,37.742-46.441c-3.557-11.448-52.451-5.822-57.416-16.859c-4.906-10.909,31.75-43.776,25.469-54.152    c-6.182-10.206-52.279,7.029-59.791-2.535c-5.775-7.352,10.1-34.05,12.984-49.337c0.746-3.947-4.129-6.449-6.969-3.609    L543.322,354.493c-3.596,3.596-3.891,9.336-0.664,13.266c29.047,35.374,27.049,87.703-5.992,120.746    C503.625,521.545,451.295,523.543,415.921,494.496z" fill="#c11218"/>
		<path d="M105.974,469.35l-76.356,76.357c-19.445,19.445-29.294,44.838-29.589,70.322H0.001v156.383h176.561v-87.639    L323.505,537.83c3.539-3.539,6.748-7.281,9.651-11.18L798.336,61.472c4.457-4.458,4.457-11.686,0-16.144l-29.002-29.001    c-2.229-2.229-5.15-3.344-8.072-3.344s-5.842,1.115-8.072,3.344L672.99,96.525C606.965,41.357,524.5,13.057,442.635,13.057    c-90.203,0-179.674,34.365-245.595,105.016C101.975,219.956,71.852,353.603,105.974,469.35z M86.046,649.191    c-17.396,0-31.498-14.104-31.498-31.498c0-17.396,14.102-31.498,31.498-31.498s31.498,14.102,31.498,31.498    C117.544,635.088,103.442,649.191,86.046,649.191z M318.084,246.545c56.875-56.875,146.819-60.524,207.937-10.947    c6.82,5.532,7.318,15.774,1.109,21.983L486.012,298.7c-31.508-11.649-68.717-4.499-94.496,21.279s-32.928,62.987-21.279,94.496    l-41.118,41.118c-6.209,6.209-16.45,5.712-21.982-1.107C257.56,393.365,261.209,303.419,318.084,246.545z" fill="#c11218"/>
		<path d="M874.125,927.305h56.105c5.555,0,10.057-4.502,10.057-10.057v-23.006v-40.037v-46.734c0-5.555-4.502-10.057-10.057-10.057    H201.561h-12.5h-12.5H0v20.617v12.5v12.5v11.174v40.037v23.006c0,5.553,4.503,10.057,10.057,10.057h56.107    c5.554,0,10.057-4.504,10.057-10.057v-19.32c83.915,15.975,228.999,26.533,393.923,26.533    c164.924,0,310.008-10.559,393.922-26.533v19.32C864.066,922.803,868.57,927.305,874.125,927.305z" fill="#c11218"/>
	</g>
</g>
<g>
</g>
<g>
</g>
<g>
</g>
<g>
</g>
<g>
</g>
<g>
</g>
<g>
</g>
<g>
</g>
<g>
</g>
<g>
</g>
<g>
</g>
<g>
</g>
<g>
</g>
<g>
</g>
<g>
</g>
</svg>
